<svg aria-hidden="true" style="position: absolute; width: 0; height: 0; overflow: hidden;" version="1.1" xmlns="http://www.w3.org/2000/svg" xmlns:xlink="http://www.w3.org/1999/xlink">
<defs>
<symbol id="icon-clock" viewBox="0 0 32 32">
<path fill="#212121" style="fill: var(--color1, #212121)" d="M31.296 15.301c-0.001-8.452-6.855-15.303-15.308-15.301s-15.303 6.855-15.301 15.308c0.002 6.788 4.422 12.543 10.541 14.545l0.108 0.031c0.061 0.019 0.123 0.029 0.187 0.029 0.12 0 0.238-0.032 0.342-0.094 0.135-0.080 0.236-0.207 0.283-0.357l3.865-12.25c1.054-0.004 1.906-0.859 1.906-1.913 0-1.056-0.856-1.913-1.913-1.913-0.303 0-0.59 0.071-0.845 0.196l0.011-0.005-5.106-5.107c-0.114-0.11-0.271-0.179-0.443-0.179-0.352 0-0.638 0.286-0.638 0.638 0 0.172 0.068 0.328 0.179 0.443l-0-0 5.103 5.109c-0.121 0.241-0.191 0.525-0.191 0.826 0 0.602 0.283 1.137 0.723 1.48l0.004 0.003-3.682 11.673c-7.278-2.681-11.004-10.754-8.324-18.032s10.754-11.004 18.032-8.323c7.278 2.681 11.004 10.754 8.323 18.032-1.345 3.581-4.003 6.406-7.374 7.938l-0.088 0.036-0.398-1.874c-0.063-0.291-0.318-0.506-0.624-0.506-0.164 0-0.313 0.062-0.426 0.163l0.001-0.001-3.837 3.426c-0.132 0.117-0.214 0.287-0.214 0.477 0 0.283 0.185 0.524 0.441 0.606l0.005 0.001 4.899 1.563c0.058 0.020 0.126 0.031 0.196 0.031 0.352 0 0.637-0.285 0.637-0.637 0-0.047-0.005-0.093-0.015-0.138l0.001 0.004-0.391-1.839c5.528-2.374 9.329-7.772 9.329-14.057 0-0.011 0-0.023-0-0.034v0.002zM15.992 14.664c0.352 0 0.638 0.286 0.638 0.638s-0.285 0.638-0.638 0.638v0c-0.352 0-0.638-0.286-0.638-0.638s0.286-0.638 0.638-0.638v0zM18.092 29.528l2.184-1.948 0.603 2.84-2.787-0.892z"></path>
<path fill="#2196f3" style="fill: var(--color2, #2196f3)" d="M15.354 3.185v1.275c0 0.352 0.286 0.638 0.638 0.638s0.638-0.285 0.638-0.638v0-1.275c0-0.352-0.285-0.638-0.638-0.638s-0.638 0.285-0.638 0.638v0zM3.876 14.664c-0.352 0-0.638 0.286-0.638 0.638s0.285 0.638 0.638 0.638h1.275c0.352 0 0.638-0.286 0.638-0.638s-0.285-0.638-0.638-0.638h-1.275zM28.108 15.939c0.352 0 0.638-0.286 0.638-0.638s-0.285-0.638-0.638-0.638h-1.275c-0.352 0-0.638 0.286-0.638 0.638s0.285 0.638 0.638 0.638h1.275z"></path>
</symbol>
<symbol id="icon-diagram" viewBox="0 0 32 32">
<path fill="#2196f3" style="fill: var(--color2, #2196f3)" d="M14.926 14.965h1.066v4.798h-1.066v-4.798zM19.19 17.097h1.066v2.665h-1.066v-2.665zM10.661 18.696h1.066v1.066h-1.066v-1.066zM7.463 18.163h1.066v1.599h-1.066v-1.599z"></path>
<path fill="#212121" style="fill: var(--color1, #212121)" d="M1.599 28.291h25.586c0 0 0 0 0 0 0.883 0 1.599-0.716 1.599-1.599v0-2.132c0-0.883-0.716-1.599-1.599-1.599v0h-0.533v-13.294l3.028-2.868c0.207 0.104 0.452 0.166 0.711 0.166 0.888 0 1.608-0.72 1.608-1.608s-0.72-1.608-1.608-1.608c-0.888 0-1.608 0.72-1.608 1.608 0 0.247 0.056 0.481 0.155 0.69l-0.004-0.010-2.281 2.162v-1.23c0-0.883-0.716-1.599-1.599-1.599v0h-21.323c-0.883 0-1.599 0.716-1.599 1.599v0 15.992h-0.533c-0.883 0-1.599 0.716-1.599 1.599v0 2.132c0 0.883 0.716 1.599 1.599 1.599v0zM30.384 4.837c0.294 0 0.533 0.239 0.533 0.533s-0.239 0.533-0.533 0.533v0c-0.294 0-0.533-0.239-0.533-0.533s0.239-0.533 0.533-0.533v0zM3.198 6.969c0-0.294 0.239-0.533 0.533-0.533h21.323c0.294 0 0.533 0.239 0.533 0.533v2.239l-1.066 1.013v-2.185c0-0.295-0.239-0.534-0.534-0.534h-19.189c-0.294 0-0.534 0.239-0.534 0.533v13.327c0 0.294 0.239 0.533 0.534 0.533h19.189c0.295 0 0.534-0.239 0.534-0.533v-9.675l1.066-1.010v12.283h-22.389v-15.991zM7.996 13.899c-0.001 0-0.003 0-0.005 0-0.883 0-1.599 0.716-1.599 1.599s0.716 1.599 1.599 1.599c0.432 0 0.824-0.172 1.112-0.45l-0 0 1.853 0.93c0.215 0.107 0.476 0.057 0.636-0.122l3.939-4.432 3.872 2.902c0.208 0.155 0.498 0.139 0.686-0.039l3.365-3.188v8.131h-18.123v-12.261h18.123v2.661l-3.771 3.572-3.904-2.927c-0.088-0.067-0.2-0.107-0.32-0.107-0.158 0-0.3 0.069-0.398 0.178l-0 0.001-3.993 4.493-1.493-0.746c0.011-0.064 0.017-0.128 0.020-0.193 0-0.883-0.716-1.599-1.599-1.599v0zM8.529 15.498c0 0.294-0.239 0.533-0.533 0.533s-0.533-0.239-0.533-0.533v0c0-0.294 0.239-0.533 0.533-0.533s0.533 0.239 0.533 0.533v0zM11.727 24.026h5.33v0.533c0 0.294-0.238 0.533-0.533 0.533h-4.265c-0.294 0-0.533-0.239-0.533-0.533v0-0.533zM1.067 24.56c0-0.294 0.238-0.533 0.533-0.533h9.062v0.533c0 0.883 0.716 1.599 1.599 1.599v0h4.265c0.883 0 1.599-0.716 1.599-1.599v0-0.533h9.062c0.294 0 0.533 0.239 0.533 0.533v2.132c0 0.294-0.239 0.533-0.533 0.533h-25.586c-0 0-0 0-0 0-0.294 0-0.533-0.239-0.533-0.533 0 0 0 0 0 0v0-2.132z"></path>
</symbol>
<symbol id="icon-convert" viewBox="0 0 43 32">
<path fill="#2196f3" style="fill: var(--color2, #2196f3)" d="M38.667 0h-34.667c-2.205 0-4 1.795-4 4v24c0 2.205 1.795 4 4 4h34.667c2.205 0 4-1.795 4-4v-24c0-2.205-1.795-4-4-4zM38.667 2.667c0.181 0 0.355 0.037 0.512 0.104l-17.845 15.467-17.845-15.467c0.151-0.065 0.327-0.104 0.512-0.104h34.667zM38.667 29.333h-34.667c-0.736 0-1.333-0.597-1.333-1.333v0-22.413l17.792 15.421c0.233 0.203 0.539 0.327 0.875 0.327s0.642-0.124 0.876-0.328l-0.002 0.001 17.792-15.421v22.413c0 0.736-0.597 1.333-1.333 1.333v0z"></path>
</symbol>
<symbol id="icon-tarelka" viewBox="0 0 30 32">
<path fill="#212121" style="fill: var(--color1, #212121)" d="M29.859 22.098l-8.443-8.505 0.937-4.616c0.225 0.090 0.485 0.144 0.758 0.146h0.007c0.008 0 0.017 0 0.026 0 1.192 0 2.159-0.967 2.159-2.159s-0.967-2.159-2.159-2.159c-1.192 0-2.159 0.967-2.159 2.159 0 0.259 0.046 0.508 0.13 0.739l-0.005-0.015-4.96 0.606-8.091-8.133c-0.096-0.098-0.229-0.159-0.376-0.16h-0c-0.14 0.001-0.274 0.057-0.373 0.155l-1.512 1.504c-0.096 0.097-0.156 0.23-0.156 0.377s0.060 0.281 0.156 0.377v0l0.814 0.825c-1.143 2.062-1.816 4.522-1.816 7.139 0 4.106 1.656 7.824 4.336 10.525l-0.001-0.001c0.043 0.041 0.092 0.074 0.146 0.097-0.032 0.164-0.051 0.353-0.052 0.546v6.188h-6.4c-1.472 0.001-2.666 1.194-2.667 2.666v1.067c0 0.295 0.239 0.534 0.534 0.534h24.534c0.294 0 0.533-0.239 0.533-0.534v-1.067c-0.002-1.472-1.195-2.665-2.666-2.666h-6.4v-2.742c1.003 0.21 2.024 0.317 3.049 0.32 2.58-0.003 5.005-0.663 7.117-1.822l-0.077 0.039 0.818 0.823c0.099 0.101 0.235 0.159 0.376 0.16 0.14-0.001 0.274-0.057 0.373-0.155l1.512-1.504c0.096-0.097 0.156-0.23 0.156-0.377s-0.060-0.281-0.156-0.377v0zM22.366 6.233c0.193-0.192 0.459-0.31 0.752-0.31 0.589 0 1.067 0.478 1.067 1.066s-0.477 1.066-1.067 1.066c-0 0-0 0-0 0h-0.004c-0.587-0.003-1.061-0.479-1.061-1.066 0-0.295 0.12-0.563 0.314-0.756l0-0h-0.002zM21.11 9.737l-0.598 2.946-1.175-1.183 1.774-1.763zM20.504 8.835l-1.92 1.909-1.486-1.493 3.406-0.416zM23.090 28.8c0.884 0 1.6 0.716 1.6 1.6v0 0.534h-23.466v-0.534c0-0.884 0.716-1.6 1.6-1.6v0h20.267zM15.623 26.666v1.067h-5.334v-1.067h5.334zM10.29 25.6v-4.053c0-1.294 1.196-2.346 2.666-2.346s2.667 1.053 2.667 2.346v4.053h-5.333zM16.69 23.904v-2.357c0-1.882-1.675-3.413-3.733-3.413-0.017-0-0.038-0-0.058-0-1.353 0-2.54 0.707-3.213 1.771l-0.009 0.016c-2.36-2.482-3.812-5.846-3.812-9.55 0-2.314 0.567-4.496 1.569-6.414l-0.036 0.077 18.602 18.709c-1.823 0.947-3.979 1.502-6.266 1.502-1.079 0-2.128-0.124-3.136-0.357l0.093 0.018zM27.979 23.22l-21.057-21.181 0.754-0.752 7.935 7.98c0.004 0 0.006 0.007 0.010 0.010l13.115 13.191-0.757 0.752z"></path>
<path fill="#2196f3" style="fill: var(--color2, #2196f3)" d="M12.961 20.267h-0.005c-0.001 0-0.002 0-0.002 0-0.884 0-1.6 0.716-1.6 1.6s0.715 1.599 1.597 1.6h0.005c0.001 0 0.001 0 0.002 0 0.884 0 1.6-0.716 1.6-1.6s-0.715-1.599-1.598-1.6h-0zM13.334 22.245c-0.096 0.096-0.229 0.155-0.376 0.155-0.295 0-0.534-0.239-0.534-0.534s0.238-0.533 0.532-0.533h0c0.293 0.001 0.531 0.239 0.531 0.533 0 0.148-0.060 0.282-0.157 0.378l-0 0h0.005z"></path>
</symbol>
<symbol id="icon-kosm" viewBox="0 0 29 32">
<path d="M28.361 13.626c-0.33-0.445-0.814-0.731-1.364-0.809-0.552-0.078-1.097 0.067-1.537 0.404l-1.437 1.102-2.178 1.626-1.558-0.621c2.779-1.247 4.721-4.026 4.721-7.253 0-4.387-3.583-7.956-7.988-7.956s-7.988 3.569-7.988 7.956c0 1.59 0.476 3.069 1.285 4.313l-3.172-0.028c-0.002 0-0.004 0-0.005 0-0.010 0-0.018 0.005-0.027 0.005-0.061 0.002-0.12 0.015-0.178 0.036-0.015 0.005-0.030 0.009-0.044 0.015-0.007 0.003-0.015 0.004-0.022 0.007l-3.71 1.832c-0.001 0-0.001 0-0.001 0.001l-2.173 1.045c-0.024 0.010-0.048 0.024-0.072 0.040-0.866 0.577-1.161 1.709-0.687 2.634 0.253 0.492 0.683 0.854 1.212 1.020 0.204 0.064 0.412 0.095 0.619 0.095 0.332 0 0.662-0.081 0.963-0.242l1.593-0.847 2.598-1.342 1.557-0.009-6.245 6.215c-0.001 0.001-0.001 0.001-0.002 0.001l-1.536 1.53c-0.363 0.361-0.562 0.84-0.562 1.351s0.2 0.991 0.562 1.353c0.373 0.371 0.863 0.557 1.353 0.557s0.98-0.186 1.354-0.557l1.508-1.502 1.998-1.491 1.034 1.029-2.022 2.013c-0.001 0.001-0.001 0.001-0.002 0.001l-1.536 1.53c-0.363 0.361-0.562 0.84-0.562 1.351s0.2 0.991 0.562 1.353c0.373 0.371 0.864 0.557 1.354 0.557s0.981-0.186 1.354-0.557l3.995-3.978c0.001-0.001 0.001-0.001 0.001-0.002l1.159-1.148-0.004-0.004c0.007-0.007 0.018-0.010 0.025-0.018l5.928-6.493 3.983 0.567c0.029 0.004 0.058 0.006 0.086 0.006 0.074 0 0.146-0.018 0.215-0.044 0.020-0.007 0.038-0.017 0.057-0.027 0.022-0.011 0.045-0.017 0.066-0.031l3.687-2.448c0.013-0.009 0.021-0.024 0.034-0.034 0.015-0.012 0.033-0.016 0.046-0.029l1.459-1.367c0.759-0.711 0.864-1.877 0.243-2.71zM2.445 17.769c-0.199 0.107-0.425 0.128-0.641 0.059-0.214-0.067-0.388-0.213-0.49-0.411-0.185-0.36-0.078-0.798 0.246-1.035l1.507-0.725 0.515 1.506-1.138 0.605zM6.458 15.672l-1.777 0.918-0.504-1.473 2.326-1.148-0.045 1.703zM23.785 8.074c0 1.054-0.252 2.048-0.687 2.937l-4.798-2.179c-0.050-0.658-0.392-1.234-0.905-1.593l1.68-5.577c2.728 0.868 4.71 3.413 4.71 6.412zM10.257 8.074c0-3.712 3.034-6.732 6.764-6.732 0.29 0 0.574 0.024 0.855 0.060l-1.643 5.455c-0.022-0.001-0.043-0.007-0.066-0.007-1.185 0-2.149 0.961-2.149 2.142s0.964 2.142 2.149 2.142c0.797 0 1.485-0.44 1.857-1.084l4.432 2.014c-1.233 1.66-3.207 2.743-5.436 2.743-3.73 0-6.764-3.020-6.764-6.732zM17.092 8.992c0 0.506-0.415 0.918-0.925 0.918s-0.925-0.412-0.925-0.918c0-0.506 0.415-0.918 0.925-0.918s0.925 0.412 0.925 0.918zM2.829 26.233c-0.271 0.269-0.71 0.268-0.98 0.001-0.13-0.13-0.202-0.302-0.202-0.485s0.072-0.354 0.202-0.483l1.104-1.1 0.977 0.973-1.1 1.096zM6.517 30.518c-0.271 0.269-0.711 0.269-0.981 0.001-0.13-0.13-0.202-0.302-0.202-0.485s0.072-0.354 0.202-0.483l1.105-1.1 0.977 0.973-1.101 1.096zM10.512 26.537c-0.001 0.001-0.001 0.001-0.002 0.001l-2.025 2.020-0.977-0.973 2.023-2.014c0 0 0 0 0-0.001s0.001-0.001 0.002-0.001c0.046-0.046 0.075-0.101 0.103-0.155 0.008-0.016 0.023-0.029 0.030-0.046 0.019-0.047 0.022-0.098 0.029-0.148 0.004-0.028 0.016-0.054 0.016-0.083 0-0.041-0.015-0.081-0.023-0.121-0.007-0.037-0.007-0.074-0.021-0.11-0.023-0.058-0.063-0.108-0.105-0.158-0.012-0.013-0.016-0.031-0.029-0.043 0 0 0 0-0.001 0s-0.001-0.002-0.001-0.002l-1.844-1.836c-0.020-0.020-0.045-0.028-0.067-0.044-0.032-0.025-0.064-0.048-0.1-0.066-0.035-0.017-0.070-0.028-0.107-0.037-0.039-0.011-0.077-0.020-0.118-0.023-0.037-0.002-0.072 0.001-0.11 0.006-0.041 0.005-0.080 0.010-0.119 0.023-0.039 0.012-0.073 0.031-0.108 0.051-0.023 0.013-0.048 0.017-0.070 0.033l-2.035 1.519-1.034-1.029 2.753-2.738 5.004 4.921-1.064 1.055zM18.337 18.485c-0.018-0.002-0.034 0.004-0.052 0.003-0.045-0.002-0.087 0.001-0.132 0.008-0.035 0.006-0.068 0.013-0.101 0.024-0.039 0.013-0.075 0.032-0.111 0.054-0.034 0.021-0.065 0.043-0.095 0.070-0.015 0.013-0.032 0.019-0.046 0.034l-5.391 5.905-4.967-4.885 3.251-3.234c0.239-0.239 0.241-0.626 0.002-0.866-0.121-0.121-0.279-0.18-0.438-0.179v-0.001l-2.546 0.015 0.032-1.845 3.562 0.031c1.452 1.485 3.476 2.411 5.716 2.411 0.502 0 0.991-0.052 1.468-0.141 0.046 0.037 0.091 0.074 0.149 0.097l2.765 1.102 0.379 1.886-3.446-0.49zM22.974 18.69l-0.359-1.788 1.66-1.239 1.086 1.442-2.387 1.585zM27.282 15.441l-0.962 0.901-1.069-1.419 0.954-0.731c0.178-0.137 0.403-0.193 0.623-0.164 0.222 0.031 0.417 0.147 0.551 0.326 0.249 0.335 0.206 0.802-0.098 1.087z"></path>
</symbol>
<symbol id="icon-phone" viewBox="0 0 20 32">
<path fill="#757575" style="fill: var(--color3, #757575)" d="M17 0h-14c-1.654 0-3 1.346-3 3v26c0 1.654 1.346 3 3 3h14c1.654 0 3-1.346 3-3v-26c0-1.654-1.346-3-3-3zM3 2h14c0.552 0 1 0.448 1 1v0 21h-16v-21c0-0.552 0.448-1 1-1v0zM17 30h-14c-0.552 0-1-0.448-1-1v0-3h16v3c0 0.552-0.448 1-1 1v0z"></path>
<path fill="#757575" style="fill: var(--color3, #757575)" d="M4.708 27.478c0.18 0.163 0.293 0.399 0.293 0.66s-0.113 0.497-0.292 0.659l-0.001 0.001c-0.186 0.17-0.435 0.275-0.708 0.275s-0.522-0.104-0.709-0.275l0.001 0.001c-0.18-0.163-0.293-0.399-0.293-0.66s0.113-0.497 0.292-0.659l0.001-0.001c0.186-0.17 0.435-0.275 0.708-0.275s0.522 0.104 0.709 0.275l-0.001-0.001z"></path>
</symbol>
</defs>
</svg>
